<svg width="105" height="28" viewBox="0 0 105 28" fill="none" xmlns="http://www.w3.org/2000/svg">
<path d="M0.575317 28H10.0685C14.57 28 18.2192 24.3508 18.2192 19.8493H8.726C4.2245 19.8493 0.575317 23.4985 0.575317 28Z" fill="#F22BB2"/>
<path d="M1 8.15069V20.137C5.5015 20.137 9.15069 16.4878 9.15069 11.9863V0C4.64919 0 1 3.64919 1 8.15069Z" fill="#8C30F5"/>
<path d="M27.4247 0H17.9315C13.43 0 9.78082 3.64919 9.78082 8.15068H19.274C23.7755 8.15068 27.4247 4.5015 27.4247 0Z" fill="#FE9A22"/>
<path d="M27.4247 19.3699V7.38356C22.9232 7.38356 19.274 11.0327 19.274 15.5342V27.5205C23.7755 27.5205 27.4247 23.8714 27.4247 19.3699Z" fill="#2EC5CE"/>
<path d="M40.4 17.92V7H37.2V21H45.4V17.92H40.4Z" fill="#0B0D17"/>
<path d="M53.8717 11V11.94C53.2117 11.18 52.2317 10.72 50.8917 10.72C48.2717 10.72 46.1117 13.02 46.1117 16C46.1117 18.98 48.2717 21.28 50.8917 21.28C52.2317 21.28 53.2117 20.82 53.8717 20.06V21H56.8717V11H53.8717ZM51.4917 18.44C50.1117 18.44 49.1117 17.5 49.1117 16C49.1117 14.5 50.1117 13.56 51.4917 13.56C52.8717 13.56 53.8717 14.5 53.8717 16C53.8717 17.5 52.8717 18.44 51.4917 18.44Z" fill="#0B0D17"/>
<path d="M64.9327 10.72C63.6127 10.72 62.6127 11.2 62.0727 11.94V11H59.0727V21H62.0727V15.54C62.0727 14.12 62.8327 13.48 63.9327 13.48C64.8927 13.48 65.6727 14.06 65.6727 15.3V21H68.6727V14.86C68.6727 12.16 66.9527 10.72 64.9327 10.72Z" fill="#0B0D17"/>
<path d="M77.9928 7V11.94C77.3328 11.18 76.3528 10.72 75.0128 10.72C72.3928 10.72 70.2328 13.02 70.2328 16C70.2328 18.98 72.3928 21.28 75.0128 21.28C76.3528 21.28 77.3328 20.82 77.9928 20.06V21H80.9928V7H77.9928ZM75.6128 18.44C74.2328 18.44 73.2328 17.5 73.2328 16C73.2328 14.5 74.2328 13.56 75.6128 13.56C76.9928 13.56 77.9928 14.5 77.9928 16C77.9928 17.5 76.9928 18.44 75.6128 18.44Z" fill="#0B0D17"/>
<path d="M84.6938 10.12C85.6738 10.12 86.4938 9.3 86.4938 8.32C86.4938 7.34 85.6738 6.52 84.6938 6.52C83.7138 6.52 82.8938 7.34 82.8938 8.32C82.8938 9.3 83.7138 10.12 84.6938 10.12ZM83.1938 21H86.1938V11H83.1938V21Z" fill="#0B0D17"/>
<path d="M93.8891 9.6V6.72C90.5691 6.52 89.0291 8.2 89.0291 11H87.6891V13.88H89.0291V21H92.0291V13.88H93.8891V11H92.0291C92.0291 9.84 92.7691 9.5 93.8891 9.6Z" fill="#0B0D17"/>
<path d="M101.681 11L99.8013 17.12L97.5813 11H94.2813L98.2613 20.54C97.8213 21.76 97.1613 22.2 95.7613 22.2V25C98.5613 25.14 100.341 23.88 101.461 20.7L104.881 11H101.681Z" fill="#0B0D17"/>
</svg>
