<svg width="120" height="32" viewBox="0 0 120 32" fill="none" xmlns="http://www.w3.org/2000/svg">
<path d="M0.657593 32H11.5069C16.6515 32 20.822 27.8295 20.822 22.6849H9.97266C4.82809 22.6849 0.657593 26.8554 0.657593 32Z" fill="#F22BB2"/>
<path d="M1.14282 9.31507V23.0137C6.28739 23.0137 10.4579 18.8432 10.4579 13.6986V0C5.31332 0 1.14282 4.1705 1.14282 9.31507Z" fill="#8C30F5"/>
<path d="M31.3425 0H20.4932C15.3486 0 11.1781 4.1705 11.1781 9.31507H22.0274C27.172 9.31507 31.3425 5.14457 31.3425 0Z" fill="#FE9A22"/>
<path d="M31.3424 22.137V8.43835C26.1978 8.43835 22.0273 12.6089 22.0273 17.7534V31.4521C27.1719 31.4521 31.3424 27.2816 31.3424 22.137Z" fill="#2EC5CE"/>
<path d="M46.1714 20.48V7.99999H42.5143V24H51.8857V20.48H46.1714Z" fill="white"/>
<path d="M61.5677 12.5714V13.6457C60.8134 12.7771 59.6934 12.2514 58.162 12.2514C55.1677 12.2514 52.6991 14.88 52.6991 18.2857C52.6991 21.6914 55.1677 24.32 58.162 24.32C59.6934 24.32 60.8134 23.7943 61.5677 22.9257V24H64.9962V12.5714H61.5677ZM58.8477 21.0743C57.2705 21.0743 56.1277 20 56.1277 18.2857C56.1277 16.5714 57.2705 15.4971 58.8477 15.4971C60.4248 15.4971 61.5677 16.5714 61.5677 18.2857C61.5677 20 60.4248 21.0743 58.8477 21.0743Z" fill="white"/>
<path d="M74.2087 12.2514C72.7002 12.2514 71.5573 12.8 70.9402 13.6457V12.5714H67.5116V24H70.9402V17.76C70.9402 16.1371 71.8087 15.4057 73.0659 15.4057C74.163 15.4057 75.0545 16.0686 75.0545 17.4857V24H78.483V16.9828C78.483 13.8971 76.5173 12.2514 74.2087 12.2514Z" fill="white"/>
<path d="M89.1346 7.99999V13.6457C88.3804 12.7771 87.2604 12.2514 85.7289 12.2514C82.7346 12.2514 80.2661 14.88 80.2661 18.2857C80.2661 21.6914 82.7346 24.32 85.7289 24.32C87.2604 24.32 88.3804 23.7943 89.1346 22.9257V24H92.5632V7.99999H89.1346ZM86.4146 21.0743C84.8375 21.0743 83.6946 20 83.6946 18.2857C83.6946 16.5714 84.8375 15.4971 86.4146 15.4971C87.9918 15.4971 89.1346 16.5714 89.1346 18.2857C89.1346 20 87.9918 21.0743 86.4146 21.0743Z" fill="white"/>
<path d="M96.7928 11.5657C97.9128 11.5657 98.85 10.6286 98.85 9.50856C98.85 8.38856 97.9128 7.45142 96.7928 7.45142C95.6728 7.45142 94.7357 8.38856 94.7357 9.50856C94.7357 10.6286 95.6728 11.5657 96.7928 11.5657ZM95.0786 24H98.5071V12.5714H95.0786V24Z" fill="white"/>
<path d="M107.302 10.9714V7.67999C103.507 7.45142 101.747 9.37142 101.747 12.5714H100.216V15.8628H101.747V24H105.176V15.8628H107.302V12.5714H105.176C105.176 11.2457 106.022 10.8571 107.302 10.9714Z" fill="white"/>
<path d="M116.207 12.5714L114.059 19.5657L111.521 12.5714H107.75L112.299 23.4743C111.796 24.8686 111.041 25.3714 109.441 25.3714V28.5714C112.641 28.7314 114.676 27.2914 115.956 23.6571L119.864 12.5714H116.207Z" fill="white"/>
</svg>
