<svg width="28" height="28" viewBox="0 0 28 28" fill="none" xmlns="http://www.w3.org/2000/svg">
<path d="M0.575439 27.9998H10.0686C14.5701 27.9998 18.2193 24.3506 18.2193 19.8491H8.72612C4.22463 19.8491 0.575439 23.4983 0.575439 27.9998Z" fill="#F22BB2"/>
<path d="M1 8.15069V20.137C5.5015 20.137 9.15069 16.4878 9.15069 11.9863V0C4.64919 0 1 3.64919 1 8.15069Z" fill="#8C30F5"/>
<path d="M27.4246 0H17.9314C13.4299 0 9.78076 3.64919 9.78076 8.15068H19.2739C23.7754 8.15068 27.4246 4.5015 27.4246 0Z" fill="#FE9A22"/>
<path d="M27.4246 19.3701V7.38379C22.9231 7.38379 19.2739 11.033 19.2739 15.5345V27.5208C23.7754 27.5208 27.4246 23.8716 27.4246 19.3701Z" fill="#2EC5CE"/>
</svg>
