<svg width="28" height="28" viewBox="0 0 28 28" fill="none" xmlns="http://www.w3.org/2000/svg">
<path d="M0.575439 27.9998H10.0686C14.5701 27.9998 18.2193 24.3506 18.2193 19.8491H8.72612C4.22463 19.8491 0.575439 23.4983 0.575439 27.9998Z" fill="#474A57"/>
<path d="M0.575439 8.63018V20.6165C5.07694 20.6165 8.72612 16.9673 8.72612 12.4658V0.479492C4.22463 0.479492 0.575439 4.12868 0.575439 8.63018Z" fill="#474A57"/>
<path d="M27.4246 0H17.9314C13.4299 0 9.78076 3.64919 9.78076 8.15068H19.2739C23.7754 8.15068 27.4246 4.5015 27.4246 0Z" fill="#474A57"/>
<path d="M27.4246 19.3701V7.38379C22.9231 7.38379 19.2739 11.033 19.2739 15.5345V27.5208C23.7754 27.5208 27.4246 23.8716 27.4246 19.3701Z" fill="#474A57"/>
</svg>
