<svg width="24" height="24" viewBox="0 0 24 24" fill="none" xmlns="http://www.w3.org/2000/svg">
<g clip-path="url(#clip0_891_688)">
<path d="M11.406 0.132002L0.585991 5.187C0.512821 5.22056 0.450835 5.27443 0.407412 5.34221C0.363989 5.40999 0.340959 5.48883 0.341065 5.56932C0.34117 5.64982 0.364405 5.72859 0.408005 5.79626C0.451605 5.86393 0.513733 5.91764 0.586991 5.951L11.492 10.969C11.814 11.117 12.186 11.117 12.508 10.969L23.413 5.951C23.4863 5.91774 23.5485 5.8641 23.5922 5.79649C23.6359 5.72888 23.6592 5.65014 23.6594 5.56964C23.6596 5.48915 23.6367 5.41028 23.5934 5.34245C23.55 5.27461 23.4881 5.22065 23.415 5.187L12.594 0.132002C12.408 0.0450957 12.2053 5.34058e-05 12 5.34058e-05C11.7947 5.34058e-05 11.592 0.0450957 11.406 0.132002Z" fill="#8C30F5"/>
<path opacity="0.64" d="M23.415 11.676L21.18 10.632C21.0199 10.5572 20.8455 10.5182 20.6688 10.5177C20.4922 10.5172 20.3175 10.5552 20.157 10.629L12.508 14.149C12.3487 14.2223 12.1754 14.2602 12 14.2602C11.8246 14.2602 11.6513 14.2223 11.492 14.149L3.842 10.629C3.68164 10.5553 3.50716 10.5174 3.33067 10.5179C3.15419 10.5184 2.97993 10.5574 2.82 10.632L0.585004 11.676C0.511877 11.7097 0.449962 11.7636 0.406627 11.8314C0.363293 11.8993 0.340367 11.9781 0.340578 12.0586C0.340788 12.1391 0.364126 12.2179 0.407815 12.2855C0.451504 12.3531 0.513703 12.4067 0.587005 12.44L11.492 17.457C11.6512 17.5307 11.8246 17.5688 12 17.5688C12.1754 17.5688 12.3488 17.5307 12.508 17.457L23.413 12.44C23.4863 12.4067 23.5485 12.3531 23.5922 12.2855C23.6359 12.2179 23.6592 12.1391 23.6594 12.0586C23.6596 11.9781 23.6367 11.8993 23.5934 11.8314C23.55 11.7636 23.4881 11.7097 23.415 11.676Z" fill="#D6B1FF"/>
<path d="M23.415 18.108L21.18 17.064C21.02 16.9892 20.8455 16.9502 20.6688 16.9497C20.4922 16.9492 20.3175 16.9872 20.157 17.061L12.508 20.58C12.3487 20.6533 12.1754 20.6912 12 20.6912C11.8246 20.6912 11.6514 20.6533 11.492 20.58L3.84201 17.06C3.68165 16.9863 3.50717 16.9484 3.33068 16.9489C3.1542 16.9494 2.97994 16.9884 2.82001 17.063L0.585014 18.108C0.512168 18.1418 0.450531 18.1957 0.407403 18.2634C0.364276 18.3312 0.341466 18.4098 0.341676 18.4901C0.341887 18.5704 0.36511 18.649 0.408592 18.7165C0.452074 18.784 0.513993 18.8376 0.587015 18.871L11.492 23.889C11.814 24.037 12.186 24.037 12.508 23.889L23.413 18.871C23.486 18.8376 23.548 18.784 23.5914 18.7165C23.6349 18.649 23.6581 18.5704 23.6584 18.4901C23.6586 18.4098 23.6358 18.3312 23.5926 18.2634C23.5495 18.1957 23.4879 18.1418 23.415 18.108Z" fill="#2EC5CE"/>
</g>
<defs>
<clipPath id="clip0_891_688">
<rect width="24" height="24" fill="white"/>
</clipPath>
</defs>
</svg>
